<svg width="73" height="23" viewBox="0 0 73 23" fill="none" xmlns="http://www.w3.org/2000/svg">
<g id="Amazon_logo 2" clip-path="url(#clip0_1203_1151)">
<path id="path8" fill-rule="evenodd" clip-rule="evenodd" d="M45.324 17.4004C41.1221 20.5126 35.0316 22.1731 29.7877 22.1731C22.4351 22.1731 15.8158 19.4404 10.808 14.8954C10.4146 14.538 10.7671 14.0509 11.2392 14.3293C16.6436 17.4889 23.3258 19.3898 30.2284 19.3898C34.8836 19.3898 40.0047 18.422 44.7134 16.4136C45.4248 16.1099 46.0196 16.8817 45.324 17.4004Z" fill="#2D2D2D"/>
<path id="path10" fill-rule="evenodd" clip-rule="evenodd" d="M47.0707 15.392C46.5356 14.7025 43.5202 15.0662 42.1668 15.2275C41.7545 15.2781 41.6915 14.9175 42.0629 14.6582C44.4645 12.9598 48.4052 13.45 48.8648 14.0193C49.3243 14.5918 48.7451 18.5611 46.4884 20.4556C46.1421 20.7466 45.8116 20.5916 45.9659 20.2058C46.4726 18.9343 47.6089 16.0846 47.0707 15.392Z" fill="#2D2D2D"/>
<path id="path12" fill-rule="evenodd" clip-rule="evenodd" d="M42.2613 2.66784V1.01685C42.2613 0.766983 42.4501 0.599354 42.6768 0.599354H50.0326C50.2686 0.599354 50.4575 0.770147 50.4575 1.01685V2.43063C50.4543 2.66784 50.256 2.9778 49.9035 3.46804L46.0918 8.93656C47.5082 8.90177 49.0033 9.11368 50.2875 9.84113C50.5771 10.0056 50.6558 10.246 50.6778 10.4832V12.2449C50.6778 12.4853 50.4134 12.7667 50.1364 12.6213C47.8733 11.4289 44.8674 11.2992 42.3651 12.6339C42.1102 12.7731 41.8427 12.4947 41.8427 12.2544V10.5812C41.8427 10.3124 41.8458 9.85378 42.1133 9.44578L46.5293 3.08217H42.6862C42.4501 3.08217 42.2613 2.91454 42.2613 2.66784Z" fill="#2D2D2D"/>
<path id="path14" fill-rule="evenodd" clip-rule="evenodd" d="M15.428 12.9691H13.1901C12.9761 12.9533 12.8061 12.792 12.7904 12.5864V1.04526C12.7904 0.81437 12.9824 0.630925 13.2216 0.630925H15.3084C15.5256 0.640407 15.6987 0.808042 15.7145 1.01679V2.52546H15.7554C16.2999 1.06739 17.3229 0.387386 18.7015 0.387386C20.1022 0.387386 20.9772 1.06739 21.6067 2.52546C22.1481 1.06739 23.3787 0.387386 24.6976 0.387386C25.6355 0.387386 26.6616 0.776414 27.288 1.64935C27.9962 2.62034 27.8514 4.03096 27.8514 5.26763L27.8483 12.5516C27.8483 12.7825 27.6563 12.9691 27.4171 12.9691H25.1823C24.9588 12.9533 24.7794 12.773 24.7794 12.5516V6.43471C24.7794 5.94763 24.8235 4.73311 24.7165 4.27134C24.5496 3.49645 24.0492 3.27821 23.4008 3.27821C22.8594 3.27821 22.2928 3.64193 22.0631 4.22389C21.8333 4.80585 21.8553 5.78 21.8553 6.43471V12.5516C21.8553 12.7825 21.6633 12.9691 21.4241 12.9691H19.1894C18.9627 12.9533 18.7865 12.773 18.7865 12.5516L18.7833 6.43471C18.7833 5.14744 18.9942 3.25291 17.4047 3.25291C15.7963 3.25291 15.8593 5.09999 15.8593 6.43471V12.5516C15.8593 12.7825 15.6673 12.9691 15.428 12.9691" fill="#2D2D2D"/>
<path id="path16" fill-rule="evenodd" clip-rule="evenodd" d="M56.7905 0.387386C60.1111 0.387386 61.9084 3.25291 61.9084 6.89648C61.9084 10.4167 59.9223 13.2095 56.7905 13.2095C53.5296 13.2095 51.7544 10.344 51.7544 6.77313C51.7544 3.18016 53.5516 0.387386 56.7905 0.387386ZM56.8093 2.74369C55.16 2.74369 55.0562 5.00195 55.0562 6.40941C55.0562 7.82003 55.0341 10.831 56.7905 10.831C58.5248 10.831 58.6066 8.40199 58.6066 6.92178C58.6066 5.94764 58.5657 4.78372 58.273 3.86017C58.0212 3.05681 57.5207 2.74369 56.8093 2.74369Z" fill="#2D2D2D"/>
<path id="path18" fill-rule="evenodd" clip-rule="evenodd" d="M66.2138 12.9691H63.9854C63.7619 12.9533 63.5825 12.773 63.5825 12.5516L63.5793 1.0073C63.5982 0.795391 63.7839 0.630925 64.0106 0.630925H66.0848C66.2799 0.640407 66.4405 0.773252 66.4845 0.953533V2.71839H66.5254C67.1518 1.14014 68.03 0.387386 69.5754 0.387386C70.5795 0.387386 71.5584 0.751112 72.1879 1.7474C72.7733 2.67095 72.7733 4.22389 72.7733 5.34037V12.6054C72.7481 12.8078 72.5624 12.9691 72.3421 12.9691H70.0979C69.8933 12.9533 69.7233 12.8015 69.7013 12.6054V6.33666C69.7013 5.07469 69.8461 3.2276 68.3007 3.2276C67.7561 3.2276 67.2557 3.59449 67.007 4.15115C66.6923 4.85646 66.6513 5.55861 66.6513 6.33666V12.5516C66.6482 12.7825 66.4531 12.9691 66.2138 12.9691" fill="#2D2D2D"/>
<path id="path28" fill-rule="evenodd" clip-rule="evenodd" d="M36.3973 7.4563C36.3973 8.3324 36.4194 9.06301 35.9787 9.84107C35.623 10.4736 35.0565 10.8627 34.4301 10.8627C33.5708 10.8627 33.0672 10.2048 33.0672 9.23381C33.0672 7.31714 34.7763 6.96923 36.3973 6.96923V7.4563ZM38.6541 12.9375C38.5062 13.0703 38.2922 13.0798 38.1253 12.9912C37.3825 12.3713 37.2472 12.0835 36.8411 11.4921C35.6136 12.7509 34.7417 13.1272 33.1522 13.1272C31.2668 13.1272 29.8032 11.9602 29.8032 9.62284C29.8032 7.79789 30.7853 6.5549 32.1891 5.94763C33.404 5.40995 35.1005 5.31507 36.3973 5.16642V4.87544C36.3973 4.34092 36.4383 3.70835 36.1235 3.24658C35.8528 2.83225 35.3303 2.66146 34.8676 2.66146C34.0146 2.66146 33.2561 3.10109 33.0704 4.01198C33.0326 4.2144 32.8847 4.41366 32.6801 4.42315L30.5114 4.1891C30.3289 4.14799 30.1243 3.99933 30.1778 3.71784C30.6751 1.07372 33.0546 0.276686 35.1824 0.276686C36.2714 0.276686 37.6941 0.567666 38.5534 1.39633C39.6425 2.41792 39.5386 3.7811 39.5386 5.26446V8.76887C39.5386 9.82209 39.9729 10.2839 40.3821 10.8532C40.5238 11.0556 40.5553 11.2991 40.3727 11.4509C39.9163 11.8337 39.1042 12.5453 38.6573 12.9438L38.6541 12.9375" fill="#2D2D2D"/>
<path id="path30" fill-rule="evenodd" clip-rule="evenodd" d="M7.05895 7.45656C7.05895 8.33267 7.08098 9.06328 6.64033 9.84133C6.28465 10.4739 5.72124 10.8629 5.09173 10.8629C4.23245 10.8629 3.732 10.2051 3.732 9.23407C3.732 7.3174 5.44111 6.96949 7.05895 6.96949V7.45656ZM9.31574 12.9377C9.16781 13.0706 8.95377 13.0801 8.78695 12.9915C8.04413 12.3716 7.91193 12.0838 7.50275 11.4923C6.27521 12.7511 5.40649 13.1275 3.81383 13.1275C1.9316 13.1275 0.464844 11.9604 0.464844 9.6231C0.464844 7.79815 1.45003 6.55516 2.85068 5.9479C4.06563 5.41022 5.76216 5.31533 7.05895 5.16668V4.8757C7.05895 4.34118 7.09987 3.70862 6.78826 3.24685C6.51442 2.83251 5.99193 2.66172 5.53239 2.66172C4.67941 2.66172 3.9177 3.10135 3.732 4.01225C3.69422 4.21467 3.54629 4.41393 3.34485 4.42342L1.17304 4.18936C0.990484 4.14825 0.78904 3.9996 0.839401 3.71811C1.33986 1.07398 3.71626 0.276951 5.844 0.276951C6.93305 0.276951 8.35574 0.567931 9.21502 1.39659C10.3041 2.41818 10.2002 3.78136 10.2002 5.26473V8.76914C10.2002 9.82236 10.6346 10.2841 11.0437 10.8534C11.1885 11.0559 11.22 11.2994 11.0374 11.4512C10.5811 11.8339 9.76899 12.5456 9.32203 12.9441L9.31574 12.9377" fill="#2D2D2D"/>
</g>
<defs>
<clipPath id="clip0_1203_1151">
<rect width="72.3086" height="21.8963" fill="white" transform="translate(0.464844 0.276733)"/>
</clipPath>
</defs>
</svg>
