<svg width="19" height="23" viewBox="0 0 19 23" fill="none" xmlns="http://www.w3.org/2000/svg">
<g id="Apple_logo_black 1" clip-path="url(#clip0_1203_1171)">
<path id="path4" d="M18.4847 17.3409C18.1536 18.1059 17.7616 18.8101 17.3075 19.4575C16.6884 20.3401 16.1816 20.951 15.791 21.2902C15.1855 21.8471 14.5367 22.1322 13.842 22.1485C13.3433 22.1485 12.7418 22.0066 12.0417 21.7187C11.3393 21.4321 10.6938 21.2902 10.1036 21.2902C9.48454 21.2902 8.82064 21.4321 8.11052 21.7187C7.39932 22.0066 6.82639 22.1566 6.38834 22.1714C5.72215 22.1998 5.05812 21.9065 4.3953 21.2902C3.97226 20.9212 3.44312 20.2887 2.80923 19.3926C2.12911 18.4357 1.56997 17.326 1.13192 16.061C0.662787 14.6945 0.427612 13.3713 0.427612 12.0903C0.427612 10.6229 0.744693 9.35726 1.3798 8.29668C1.87894 7.44478 2.54297 6.77277 3.37405 6.27944C4.20514 5.78612 5.10313 5.53472 6.07018 5.51864C6.59932 5.51864 7.29322 5.68232 8.15553 6.00399C9.0154 6.32675 9.56752 6.49043 9.80959 6.49043C9.99057 6.49043 10.6039 6.29904 11.6437 5.91749C12.627 5.56365 13.4568 5.41714 14.1367 5.47485C15.9789 5.62352 17.3629 6.34973 18.2833 7.65805C16.6357 8.65633 15.8207 10.0545 15.837 11.8482C15.8518 13.2453 16.3587 14.408 17.3548 15.3311C17.8062 15.7596 18.3103 16.0907 18.8712 16.3259C18.7496 16.6786 18.6212 17.0165 18.4847 17.3409ZM14.2597 0.715128C14.2597 1.81019 13.8596 2.83265 13.0622 3.77902C12.0998 4.90408 10.9359 5.55419 9.67362 5.4516C9.65754 5.32023 9.64821 5.18196 9.64821 5.03667C9.64821 3.98541 10.1059 2.86035 10.9186 1.94047C11.3243 1.47472 11.8403 1.08745 12.4661 0.778517C13.0905 0.474195 13.6812 0.305899 14.2367 0.277079C14.2529 0.423471 14.2597 0.569873 14.2597 0.715114V0.715128Z" fill="#2D2D2D"/>
</g>
<defs>
<clipPath id="clip0_1203_1171">
<rect width="18.4436" height="21.8963" fill="white" transform="translate(0.427734 0.276733)"/>
</clipPath>
</defs>
</svg>
