<svg width="39" height="26" viewBox="0 0 39 26" fill="none" xmlns="http://www.w3.org/2000/svg">
<g id="Frame" clip-path="url(#clip0_1203_1161)">
<path id="Vector" d="M28.8893 12.9143C28.8274 12.8487 28.7541 12.7948 28.673 12.7553C28.0921 12.4081 27.5221 12.0436 26.9262 11.7267C26.5121 11.5125 26.0817 11.3317 25.639 11.1859C25.0982 10.9998 24.7856 10.5856 24.8581 10.0199C24.8744 9.93671 24.8693 9.85076 24.8432 9.77014C24.8171 9.68952 24.7708 9.61689 24.7088 9.5591C24.5066 9.35792 24.5185 9.31898 24.8094 9.15241C24.7549 9.0366 24.7101 8.91649 24.6753 8.79331C24.6597 8.7023 24.6695 8.60877 24.7034 8.52291C24.7943 8.29144 24.9133 8.07187 24.9998 7.83933C25.0658 7.65978 24.9998 7.55162 24.7835 7.54837C24.1777 7.52875 23.5839 7.3743 23.0453 7.09625C22.7558 6.97178 22.4731 6.83205 22.1984 6.67767C21.7441 6.38996 21.2909 6.43214 20.8312 6.62251C20.7371 6.66144 20.6755 6.77718 20.5987 6.8583L20.6398 6.93509L19.8827 6.8875C19.7129 6.87669 19.5214 6.81071 19.3776 6.86695C19.1201 6.96646 18.8843 6.92752 18.6377 6.88101L17.5691 6.67659C17.6567 6.93726 17.5128 6.92103 17.3798 6.89291C17.1635 6.85614 16.9385 6.79989 16.7157 6.76961C16.5556 6.74689 16.3912 6.75122 16.163 6.74148L16.3945 7.0465C15.9754 7.21793 15.5146 7.2602 15.0714 7.16788C14.6281 7.07557 14.2225 6.85288 13.9067 6.52841C13.2578 5.82535 13.0793 4.946 13.0014 4.04069C12.903 2.90391 13.1864 1.84392 13.7045 0.838016C13.7585 0.716314 13.8047 0.591318 13.8429 0.463777L13.7564 0.401043C13.6196 0.475083 13.489 0.560088 13.3659 0.655224C12.776 1.16993 12.3836 1.87398 12.2562 2.64648C12.1848 3.07913 12.2021 3.52584 12.161 3.96389C12.1534 4.05042 12.0615 4.13046 12.0085 4.21266C11.9414 4.14019 11.8268 4.07205 11.8181 3.99634C11.7824 3.68483 11.777 3.369 11.7673 3.05533C11.7608 2.87146 11.7673 2.68866 11.7673 2.43773C11.6379 2.52211 11.5283 2.63346 11.446 2.76414C11.3637 2.89482 11.3106 3.04174 11.2903 3.19486C11.1097 4.09909 11.2416 4.94924 11.7738 5.72152C11.839 5.83187 11.8968 5.94641 11.9468 6.06439L11.8387 6.12929C11.6891 5.97005 11.5517 5.79975 11.4277 5.61985C11.2665 5.35052 11.1497 5.05416 10.995 4.77835C10.9283 4.68309 10.8506 4.59597 10.7636 4.51876C10.7214 4.63882 10.6759 4.7578 10.6392 4.87894C10.6341 4.91512 10.6367 4.95198 10.6467 4.9871C10.7476 5.73775 11.0949 6.43363 11.6343 6.96538C12.2692 7.60029 13.0285 8.03942 13.844 8.39636C13.9316 8.4353 14.0679 8.52291 14.0668 8.58564C14.0784 8.97109 14.0505 9.35671 13.9835 9.73648C13.8289 10.4222 13.1485 10.6472 12.5709 10.2394C12.214 9.98634 12.0929 9.97985 11.7835 10.3097C11.4738 10.6389 11.0782 10.875 10.6413 10.9912C10.2433 11.0993 9.84851 11.2313 9.45155 11.3632C9.2465 11.4291 9.04688 11.5108 8.8545 11.6077C8.77987 11.6466 8.73877 11.7515 8.68253 11.824L8.88479 11.9657L8.5603 12.1896L8.78528 12.3702C8.76206 12.4014 8.74246 12.4352 8.72687 12.4708C8.70308 12.5465 8.68577 12.6244 8.66522 12.7012C8.74959 12.7163 8.8426 12.7618 8.91507 12.7401C9.08591 12.6831 9.25192 12.6126 9.41153 12.5292C10.0724 12.2047 10.7419 11.8802 11.3887 11.5309C12.0355 11.1815 12.6261 11.2399 13.2545 11.5925C13.6082 11.7905 14.0225 11.8911 14.4183 12.0014C14.7526 12.0944 15.0597 11.983 15.3269 11.7678C15.5649 11.5752 15.7985 11.3773 16.0375 11.1848C16.2195 11.0275 16.4382 10.9187 16.6734 10.8684C16.9086 10.8181 17.1527 10.828 17.3831 10.8971C17.6342 10.9775 17.8802 11.0732 18.1196 11.1837C18.5934 11.3816 19.0531 11.6163 19.5376 11.7829C20.2815 12.0537 21.0929 12.0772 21.8512 11.85C22.4612 11.6585 22.962 11.7083 23.3655 12.2361C23.5612 12.4892 23.7981 12.5606 24.1291 12.4622C24.8722 12.2372 25.6055 12.2545 26.2988 12.6579C26.6103 12.8396 26.9218 13.0224 27.2442 13.1814C27.545 13.326 27.8538 13.4534 28.1689 13.5632C28.2726 13.5875 28.3812 13.5798 28.4804 13.5412C28.5796 13.5025 28.6648 13.4348 28.7249 13.3469L29.0602 13.216C29.0117 13.1109 28.9545 13.01 28.8893 12.9143Z" fill="#2D2D2D"/>
<path id="Vector_2" d="M36.2973 16.5496C36.1076 16.4153 35.9024 16.3041 35.6862 16.2186C35.3823 16.1105 35.06 16.0596 34.7506 15.9677C33.992 15.744 33.1849 15.744 32.4262 15.9677C31.1175 16.3517 30.0467 17.1045 29.4572 18.4024C29.388 18.5549 29.3955 18.7474 29.3112 18.888C28.9867 19.4397 29.0419 20.0508 28.9867 20.9042C29.0332 21.1876 29.1208 21.7154 29.2095 22.2432C29.3566 23.1139 29.8844 23.7477 30.5604 24.241C31.2538 24.7461 31.9752 25.1852 32.8957 25.2588C33.5565 25.3128 34.1882 25.4286 34.8664 25.2923C35.6019 25.1452 36.1838 24.7893 36.7127 24.3059C36.9106 24.1252 37.0566 23.8884 37.2481 23.6991C37.9587 22.9982 38.2864 22.121 38.4184 21.1594C38.5504 20.1979 38.373 19.312 38.0117 18.4262C37.6688 17.5717 37.0264 17.0244 36.2973 16.5496ZM35.3672 22.4985C34.7508 22.9699 33.9739 23.1801 33.2039 23.0836C32.2088 22.9614 31.7026 22.3817 31.3652 21.4753C31.071 20.6889 31.2235 19.9967 31.4971 19.2818C31.5501 19.1477 31.6326 19.0272 31.7383 18.9291C32.1634 18.5365 32.5679 18.1817 33.2245 18.1082C33.7512 18.0487 34.2325 18.1471 34.702 18.251C35.3964 18.4046 35.7771 18.9865 35.9923 19.6268C36.1221 20.0118 36.1297 20.438 36.1903 20.8317C36.1254 21.5131 35.8658 22.1329 35.3672 22.5028V22.4985Z" fill="#2D2D2D"/>
<path id="Vector_3" d="M20.667 4.17381C20.615 4.23762 20.5988 4.4215 20.6421 4.45503C20.8302 4.58743 21.0264 4.70808 21.2294 4.81629C21.2889 4.90822 21.3603 5.03802 21.4457 5.04451C21.7507 5.06939 22.059 5.05424 22.3889 5.05424L21.8751 5.66752L22.0817 5.7573L21.7464 6.02013C21.8275 6.06772 21.8686 6.098 21.9141 6.11856C22.2829 6.28512 22.6582 6.43763 23.0195 6.61826C23.5871 6.89446 24.1956 7.07708 24.8214 7.15907C25.0724 7.19585 25.2411 7.12879 25.3093 6.86379C25.3472 6.72466 25.3994 6.58982 25.465 6.46143C25.6121 6.14447 25.8207 5.85984 26.0785 5.62405C26.3364 5.38826 26.6385 5.20598 26.9674 5.08777C27.7321 4.80763 28.0933 4.27981 28.0144 3.5032C27.9906 3.26633 27.8705 3.156 27.6466 3.17223C27.395 3.186 27.1446 3.21671 26.8971 3.26417C26.4742 3.3507 26.1291 3.27606 25.8274 2.93968C25.4888 2.55571 25.0702 2.30153 24.5186 2.38265C24.1854 2.42503 23.8477 2.35131 23.5624 2.1739C23.3602 2.05924 23.1428 1.92729 22.9221 1.90349C22.2084 1.80489 21.484 1.98289 20.8973 2.40104C20.8103 2.47931 20.7303 2.56509 20.6583 2.65738C20.8216 2.7093 20.9309 2.74066 21.0358 2.78068C21.0899 2.80123 21.1818 2.84125 21.1807 2.8683C21.171 3.10301 21.3592 3.08462 21.4944 3.12247C21.6026 3.15384 21.7107 3.17223 21.8135 3.19711L21.8243 3.27174C21.5766 3.44696 21.3257 3.61677 21.0834 3.79957C20.9309 3.90815 20.7912 4.0337 20.667 4.17381ZM27.7829 3.49455C27.7829 3.55404 27.8197 3.67843 27.7743 3.72602C27.6892 3.8209 27.5751 3.88482 27.4498 3.90773C27.357 3.92474 27.2612 3.9079 27.1799 3.86026C27.0985 3.81262 27.0369 3.73735 27.0063 3.64814L27.7829 3.49455Z" fill="#2D2D2D"/>
<path id="Vector_4" d="M10.8338 13.7678C10.959 13.7503 11.0818 13.718 11.1994 13.6715C11.5476 13.4833 11.8916 13.2875 12.2258 13.0766C12.6801 12.79 13.1593 12.6007 13.7033 12.644C13.9638 12.6707 14.2227 12.7115 14.4788 12.7662C15.2068 12.9111 15.8244 12.7467 16.3392 12.1843C16.6224 11.8964 16.9233 11.6266 17.2402 11.3763C17.3873 11.2519 17.3548 11.1394 17.2067 11.0994C17.0396 11.0437 16.86 11.0377 16.6896 11.0821C16.4891 11.16 16.3082 11.2812 16.1597 11.4369C15.449 12.1648 14.6454 12.5012 13.62 12.1778C13.2842 12.0737 12.9377 12.008 12.5871 11.982C12.3564 11.9551 12.1228 11.9926 11.9122 12.0902C11.3951 12.3703 10.8846 12.6829 10.7743 13.3557L10.9506 13.4238L10.7981 13.6856L10.8338 13.7678Z" fill="#2D2D2D"/>
<path id="Vector_5" d="M26.0901 9.91501C25.8392 9.89879 25.5904 9.8512 25.3406 9.83173C25.1686 9.81875 25.0961 9.91285 25.1167 10.0848C25.132 10.2804 25.2155 10.4644 25.3527 10.6046C25.49 10.7448 25.6721 10.8322 25.8673 10.8517C26.1258 10.8809 26.3876 10.8755 26.6472 10.8993C27.281 10.9566 27.9159 11.0139 28.5487 11.0897C28.7455 11.1134 28.9315 11.1838 28.8861 10.8787L29.3004 10.9501L29.2052 10.6624L29.6259 10.6224C29.5995 10.5095 29.5379 10.408 29.4501 10.3323C29.3622 10.2567 29.2526 10.211 29.1371 10.2016C28.5173 10.1054 27.8932 10.0351 27.2691 9.97558C26.8776 9.93773 26.4849 9.94205 26.0901 9.91501Z" fill="#2D2D2D"/>
<path id="Vector_6" d="M12.0052 21.7435C12.7039 21.6689 13.4038 21.6073 14.1036 21.5467C15.2706 21.445 16.4377 21.352 17.6037 21.2482C17.9444 21.2179 18.0233 21.14 18.0515 20.7928C18.123 19.9922 18.0268 19.1854 17.7692 18.424C17.436 17.4625 16.7676 16.7162 15.9023 16.1959C15.0121 15.6605 14.0192 15.5015 12.9819 15.6443C12.2001 15.7428 11.4665 16.0762 10.8782 16.6004C10.5483 16.8946 10.279 17.2581 9.99774 17.602C9.50236 18.2077 9.29253 18.9346 9.19518 19.6895C9.08799 20.5033 9.13979 21.3302 9.34769 22.1243C9.62458 23.194 10.1935 24.0712 11.0891 24.6715C11.2453 24.7763 11.4082 24.8706 11.5769 24.9538C11.6678 24.9992 11.7597 25.0403 11.8527 25.0782C12.5159 25.3457 13.2309 25.4603 13.9446 25.4135C14.0051 25.4135 14.0668 25.42 14.1263 25.4135C14.1466 25.4124 14.1668 25.4102 14.1868 25.407C14.7882 25.3118 15.4188 25.2988 15.9845 25.0944C16.9266 24.7591 17.5107 23.9879 17.9876 23.1367C18.072 22.9885 18.0515 22.8846 17.9065 22.8003C17.6264 22.638 17.3549 22.4574 17.0639 22.3168C16.4269 22.0085 16.415 22.0096 15.9326 22.5331C15.6144 22.8706 15.1857 23.0829 14.7244 23.1313C14.436 23.1709 14.1497 23.2026 13.8656 23.2264C13.0003 23.2989 12.2864 23.0253 11.7619 22.3179C11.512 21.975 11.5866 21.7836 12.0052 21.7435ZM11.4741 19.3694C11.6396 18.6815 12.1231 18.3094 12.744 18.0552C13.3416 17.8073 14.0109 17.7949 14.6173 18.0206C15.2868 18.2532 15.753 18.6901 15.8969 19.4775C15.4523 19.5046 15.0424 19.5327 14.6314 19.5554C13.6709 19.6073 12.7101 19.6575 11.7489 19.7058C11.4741 19.7209 11.4093 19.6409 11.4741 19.3694Z" fill="#2D2D2D"/>
<path id="Vector_7" d="M7.94703 21.8377C7.79885 21.3672 7.5663 20.9724 7.15637 20.6793C7.04821 20.6025 6.92166 20.5116 7.07308 20.3548C7.31264 20.1118 7.49964 19.8221 7.62245 19.5037C7.74526 19.1853 7.80125 18.8451 7.78695 18.5041C7.78695 18.0131 7.69501 17.5977 7.37053 17.2386C6.6134 16.4004 5.73512 15.8228 4.54426 15.8477C3.89529 15.8617 3.23551 15.8131 2.58113 15.8001C2.14199 15.7914 1.70177 15.8001 1.26264 15.7925C1.08417 15.7925 1.01711 15.8531 1.01495 16.0478C1.00629 17.2257 0.980333 18.4046 0.960864 19.5836C0.94464 20.5722 0.931663 21.5597 0.912194 22.5483C0.912194 22.7278 0.864602 22.9063 0.871092 23.0891C0.888397 23.591 0.921927 24.0918 0.947885 24.5936H0.919766C0.919766 24.7559 0.930582 24.9181 0.919766 25.0804C0.900297 25.3021 0.973844 25.3962 1.20747 25.3648C1.37593 25.3417 1.54648 25.3377 1.71583 25.3529C2.92941 25.4611 4.1419 25.394 5.35007 25.2934C6.66964 25.1853 7.54792 24.4844 7.96975 23.2221C8.11216 22.7704 8.10419 22.2846 7.94703 21.8377ZM3.18142 18.3397C3.18142 18.1234 3.26687 18.0152 3.51348 18.0488C3.72149 18.0652 3.9304 18.067 4.13866 18.0542C4.37553 18.0769 4.69785 18.1007 5.01801 18.1418C5.2246 18.1677 5.39333 18.2943 5.39658 18.5009C5.39973 18.7651 5.36327 19.0284 5.28842 19.2818C5.25775 19.3394 5.21397 19.389 5.16061 19.4266C5.10725 19.4642 5.04581 19.4887 4.98124 19.4981C4.45557 19.5565 3.92558 19.5825 3.39667 19.6182C3.36806 19.6241 3.33846 19.623 3.31037 19.615C3.28229 19.607 3.25654 19.5923 3.23532 19.5723C3.21409 19.5522 3.19801 19.5273 3.18845 19.4997C3.17888 19.4722 3.1761 19.4427 3.18035 19.4138C3.18035 19.0579 3.17818 18.6988 3.18142 18.3397ZM4.90444 23.1432C4.59726 23.1973 4.28035 23.2005 3.96776 23.2265V23.181C3.76009 23.181 3.5535 23.181 3.34691 23.181C3.20522 23.181 3.16088 23.1172 3.16628 22.982C3.18034 22.6132 3.19549 22.2444 3.19116 21.8766C3.18542 21.8433 3.1871 21.8092 3.19609 21.7766C3.20509 21.744 3.22116 21.7139 3.24317 21.6882C3.26519 21.6626 3.29259 21.6422 3.32343 21.6283C3.35426 21.6145 3.38777 21.6077 3.42154 21.6084C3.97641 21.5597 4.53237 21.5067 5.08832 21.4829C5.34033 21.4721 5.57937 21.8182 5.61506 22.1795C5.6659 22.7084 5.42686 23.0523 4.90444 23.1432Z" fill="#2D2D2D"/>
<path id="Vector_8" d="M27.9039 22.5667C27.495 22.3677 27.0591 22.2206 26.6319 22.0594C26.4156 21.975 26.249 22.0594 26.0846 22.2292C25.8474 22.4851 25.5826 22.714 25.295 22.9117C24.7878 23.2427 24.2026 23.2578 23.6261 23.1789C23.1934 23.1205 22.737 23.0848 22.3909 22.7754C21.5353 22.0107 21.3244 21.0449 21.5753 19.9632C21.6271 19.7353 21.7132 19.5164 21.8306 19.3143C21.9691 19.0785 22.1194 18.8135 22.3357 18.6653C23.2692 18.0282 24.619 17.8963 25.5892 18.5755C25.6964 18.6578 25.813 18.7271 25.9364 18.7821C25.9792 18.801 26.0254 18.8107 26.0722 18.8107C26.1189 18.8107 26.1651 18.801 26.2079 18.7821C26.6546 18.449 27.0948 18.1061 27.5221 17.7481C27.551 17.7061 27.5688 17.6575 27.5737 17.6068C27.5786 17.5561 27.5706 17.5049 27.5502 17.4582C27.3166 17.1878 27.1002 16.8579 26.7985 16.7011C25.8942 16.2273 24.9749 15.7428 23.9062 15.8542C22.8711 15.8401 21.9842 16.2306 21.1384 16.7562C20.336 17.2447 19.7596 18.031 19.5354 18.9433C19.4236 19.3419 19.3394 19.7477 19.2834 20.1579C19.2034 20.8069 19.1871 21.4505 19.4089 22.08C19.5845 22.5908 19.8326 23.0738 20.1455 23.5142C20.4472 23.9339 20.7598 24.3276 21.1946 24.6153C22.3455 25.3724 23.6001 25.5552 24.9435 25.3335C26.315 25.1063 27.3696 24.4303 28.0802 23.2308C28.2846 22.8912 28.2695 22.7452 27.9039 22.5667Z" fill="#2D2D2D"/>
</g>
<defs>
<clipPath id="clip0_1203_1161">
<rect width="37.5938" height="25.0243" fill="white" transform="translate(0.871094 0.400024)"/>
</clipPath>
</defs>
</svg>
