<svg width="67" height="23" viewBox="0 0 67 23" fill="none" xmlns="http://www.w3.org/2000/svg">
<g id="Google">
<path id="Vector" d="M28.4655 11.9473C28.4655 15.0975 26.0011 17.4189 22.9767 17.4189C19.9522 17.4189 17.4878 15.0975 17.4878 11.9473C17.4878 8.77486 19.9522 6.47571 22.9767 6.47571C26.0011 6.47571 28.4655 8.77486 28.4655 11.9473ZM26.0627 11.9473C26.0627 9.97871 24.6344 8.63178 22.9767 8.63178C21.3189 8.63178 19.8906 9.97871 19.8906 11.9473C19.8906 13.8962 21.3189 15.2628 22.9767 15.2628C24.6344 15.2628 26.0627 13.8937 26.0627 11.9473Z" fill="#2D2D2D"/>
<path id="Vector_2" d="M40.3073 11.9473C40.3073 15.0975 37.8429 17.4189 34.8184 17.4189C31.794 17.4189 29.3296 15.0975 29.3296 11.9473C29.3296 8.77733 31.794 6.47571 34.8184 6.47571C37.8429 6.47571 40.3073 8.77486 40.3073 11.9473ZM37.9045 11.9473C37.9045 9.97871 36.4762 8.63178 34.8184 8.63178C33.1607 8.63178 31.7324 9.97871 31.7324 11.9473C31.7324 13.8962 33.1607 15.2628 34.8184 15.2628C36.4762 15.2628 37.9045 13.8937 37.9045 11.9473Z" fill="#2D2D2D"/>
<path id="Vector_3" d="M51.6543 6.80627V16.6295C51.6543 20.6703 49.2713 22.3206 46.4541 22.3206C43.8022 22.3206 42.2061 20.5469 41.6041 19.0964L43.6961 18.2256C44.0686 19.1161 44.9813 20.167 46.4516 20.167C48.2549 20.167 49.3724 19.0544 49.3724 16.96V16.1731H49.2885C48.7508 16.8367 47.7147 17.4164 46.4072 17.4164C43.6714 17.4164 41.165 15.0334 41.165 11.967C41.165 8.87847 43.6714 6.47571 46.4072 6.47571C47.7122 6.47571 48.7483 7.05543 49.2885 7.69929H49.3724V6.80874H51.6543V6.80627ZM49.5426 11.967C49.5426 10.0404 48.2574 8.63178 46.6218 8.63178C44.9641 8.63178 43.5752 10.0404 43.5752 11.967C43.5752 13.874 44.9641 15.2628 46.6218 15.2628C48.2574 15.2628 49.5426 13.874 49.5426 11.967Z" fill="#2D2D2D"/>
<path id="Vector_4" d="M55.4164 1.04862V17.0835H53.0729V1.04862H55.4164Z" fill="#2D2D2D"/>
<path id="Vector_5" d="M64.5493 13.7482L66.4143 14.9915C65.8124 15.882 64.3618 17.4164 61.8555 17.4164C58.7471 17.4164 56.4258 15.0137 56.4258 11.9449C56.4258 8.69101 58.7669 6.47327 61.5866 6.47327C64.426 6.47327 65.8148 8.73295 66.2688 9.95407L66.5179 10.5757L59.2035 13.6051C59.7635 14.7029 60.6343 15.2628 61.8555 15.2628C63.079 15.2628 63.9277 14.6609 64.5493 13.7482ZM58.8088 11.7796L63.6982 9.74931C63.4293 9.06598 62.6202 8.58987 61.668 8.58987C60.4468 8.58987 58.7471 9.66791 58.8088 11.7796Z" fill="#2D2D2D"/>
<path id="Vector_6" d="M8.61689 10.5239V8.20258H16.4394C16.5159 8.60716 16.5554 9.08573 16.5554 9.60378C16.5554 11.3454 16.0793 13.499 14.5449 15.0334C13.0524 16.5876 11.1455 17.4165 8.61935 17.4165C3.93718 17.4165 0 13.6026 0 8.92045C0 4.23827 3.93718 0.424438 8.61935 0.424438C11.2096 0.424438 13.0548 1.4408 14.4412 2.76553L12.8032 4.40355C11.8091 3.47106 10.4621 2.74579 8.61689 2.74579C5.19776 2.74579 2.52364 5.50132 2.52364 8.92045C2.52364 12.3396 5.19776 15.0951 8.61689 15.0951C10.8346 15.0951 12.0977 14.2046 12.9068 13.3954C13.563 12.7392 13.9947 11.8018 14.165 10.5215L8.61689 10.5239Z" fill="#2D2D2D"/>
</g>
</svg>
