<svg width="84" height="23" viewBox="0 0 84 23" fill="none" xmlns="http://www.w3.org/2000/svg">
<g id="Nestle">
<path id="Vector" fill-rule="evenodd" clip-rule="evenodd" d="M73.6226 6.73737C73.6226 6.34585 73.3074 6.0288 72.9154 6.0288H71.8675C71.4755 6.0288 71.1603 6.34719 71.1603 6.73871V17.6981C71.1603 18.0901 71.4764 18.4071 71.8675 18.4071H72.9163C73.3074 18.4071 73.6226 18.0883 73.6226 17.6972V6.73737ZM74.9586 7.02856V7.54984C74.9586 7.76477 75.1348 7.93913 75.3506 7.93913H82.5795C82.9094 7.93913 83.177 7.67291 83.177 7.34338V6.46135C83.177 6.13137 82.9063 5.83305 82.5795 5.8656C82.5795 5.8656 75.5901 6.55142 75.3662 6.5764C75.2537 6.5863 75.1491 6.63844 75.0735 6.72233C74.9979 6.80622 74.9568 6.91563 74.9586 7.02856ZM69.1059 18.4076C67.3075 18.4076 66.1753 17.0435 66.1753 15.5256L66.1744 11.1404H65.6598C65.5947 11.1404 65.5302 11.1277 65.47 11.1028C65.4098 11.0779 65.3551 11.0415 65.309 10.9955C65.263 10.9495 65.2264 10.8948 65.2014 10.8347C65.1764 10.7746 65.1635 10.7101 65.1635 10.645V9.91099C65.1635 9.63675 65.3864 9.41601 65.6616 9.41601L66.1744 9.41691L66.1735 6.72087C66.1735 6.33917 66.4807 6.02969 66.8633 6.02969H67.8858C68.2667 6.02969 68.5757 6.34139 68.5757 6.7231V9.41735L70.1685 9.41691C70.4428 9.41691 70.6666 9.63719 70.6666 9.91188V10.6459C70.6666 10.9206 70.4437 11.1413 70.1703 11.1413L68.5757 11.1408L68.5775 15.1969C68.5775 15.9929 69.06 16.5365 69.9215 16.5365H70.0669C70.3647 16.5365 70.6069 16.7759 70.6069 17.0738V17.8698C70.6069 18.1685 70.3656 18.408 70.0678 18.408H69.1059V18.4076ZM52.2643 9.10075C49.3569 9.10075 47.7266 11.3758 47.7266 13.7735C47.7266 16.3287 49.4728 18.5774 52.2834 18.5774C54.2072 18.5774 56.1032 17.5639 56.4613 15.9001C56.5099 15.6754 56.3587 15.3811 56.0426 15.3793L54.6674 15.3802C54.4181 15.3802 54.2143 15.4997 54.0917 15.6799C53.6979 16.2564 53.1222 16.5628 52.2705 16.5628C51.0661 16.5628 50.2318 15.6143 50.1689 14.5624H56.0136C56.5518 14.5624 56.7931 14.2699 56.7931 13.7731C56.7931 11.436 55.4085 9.10075 52.2643 9.10075ZM52.2643 10.9772C53.3372 10.9772 54.2638 11.7406 54.3579 12.7738H50.1863C50.2804 11.7406 51.1914 10.9772 52.2643 10.9772ZM78.8997 9.10075C75.9918 9.10075 74.3611 11.3758 74.3611 13.7735C74.3611 16.3287 76.1073 18.5774 78.918 18.5774C80.8417 18.5774 82.7378 17.5639 83.0958 15.9001C83.1444 15.6754 82.9933 15.3811 82.6771 15.3793L81.3028 15.3802C81.0526 15.3802 80.8488 15.4997 80.7262 15.6799C80.3324 16.2564 79.7568 16.5628 78.905 16.5628C77.7006 16.5628 76.8663 15.6143 76.8034 14.5624H82.6481C83.1864 14.5624 83.4276 14.2699 83.4276 13.7731C83.4276 11.436 82.0426 9.10075 78.8997 9.10075ZM78.8997 10.9772C79.9717 10.9772 80.8992 11.7406 80.9924 12.7738H76.8208C76.9144 11.7406 77.8255 10.9772 78.8997 10.9772Z" fill="#2D2D2D"/>
<path id="Vector_2" fill-rule="evenodd" clip-rule="evenodd" d="M64.2083 6.1514H45.2748C44.8445 6.1514 44.4971 6.501 44.4971 6.93132L44.5617 14.3671C44.5617 14.3671 40.4824 6.99732 40.2697 6.62185C40.0695 6.26823 39.6401 5.94226 39.0452 5.94226H37.4885C37.0577 5.94226 36.7095 6.29187 36.7095 6.72218L36.7104 17.6273C36.7104 18.0576 37.0582 18.4067 37.4889 18.4067H38.4874C38.6942 18.4063 38.8923 18.3237 39.0383 18.1772C39.1843 18.0307 39.2662 17.8323 39.266 17.6255L39.2031 9.98099C39.2031 9.98099 43.3221 17.4235 43.4982 17.7169C43.7359 18.1133 44.1386 18.4067 44.7209 18.4067H46.151C46.5822 18.4067 46.9296 18.0576 46.9296 17.6273L46.9287 7.99976H64.2092C64.2789 7.99993 64.3481 7.98634 64.4126 7.95975C64.4772 7.93316 64.5358 7.8941 64.5852 7.84481C64.6347 7.79551 64.6739 7.73695 64.7006 7.67248C64.7274 7.60802 64.7411 7.5389 64.7411 7.46911V6.68205C64.7408 6.54104 64.6845 6.40593 64.5845 6.30643C64.4846 6.20692 64.3493 6.15116 64.2083 6.1514Z" fill="#2D2D2D"/>
<path id="Vector_3" fill-rule="evenodd" clip-rule="evenodd" d="M61.1436 10.8862C61.9667 10.8862 62.5826 11.185 62.8046 11.7009C62.9108 11.9493 63.1172 11.997 63.4004 11.997H64.5326C64.7208 11.997 64.9339 11.8361 64.9339 11.5912C64.9339 10.2749 63.3652 9.09987 61.1427 9.09987C58.8435 9.09987 57.3341 10.1955 57.3341 11.9395C57.3341 13.2746 58.3878 14.0688 59.6845 14.4077C60.2758 14.5629 61.2854 14.8117 61.7763 14.9406C62.3061 15.0797 62.7797 15.2411 62.7797 15.6955C62.7797 16.4112 62.0238 16.6552 61.2006 16.6552C60.4194 16.6552 59.6417 16.306 59.4187 15.7495C59.289 15.4262 59.0633 15.3794 58.7204 15.3794H57.569C57.3679 15.3794 57.137 15.5519 57.137 15.8141V15.9622C57.137 17.2362 58.8457 18.57 61.2024 18.57C62.8737 18.57 65.2028 17.8757 65.2028 15.634C65.2028 14.3355 64.3346 13.4365 62.921 13.078C62.3681 12.9379 61.0397 12.5999 60.7507 12.525C60.2352 12.3917 59.7554 12.2236 59.7554 11.7821C59.7554 11.1137 60.373 10.8862 61.1436 10.8862ZM19.2322 3.63194C19.3328 3.63194 19.4294 3.59196 19.5005 3.5208C19.5717 3.44963 19.6117 3.35311 19.6117 3.25246C19.6117 3.15182 19.5717 3.0553 19.5005 2.98413C19.4294 2.91296 19.3328 2.87298 19.2322 2.87298C19.1315 2.87298 19.035 2.91296 18.9639 2.98413C18.8927 3.0553 18.8527 3.15182 18.8527 3.25246C18.8527 3.35311 18.8927 3.44963 18.9639 3.5208C19.035 3.59196 19.1315 3.63194 19.2322 3.63194ZM14.1362 2.95994C14.2209 2.95994 14.3021 2.9263 14.3619 2.86642C14.4218 2.80654 14.4555 2.72533 14.4555 2.64065C14.4555 2.55598 14.4218 2.47477 14.3619 2.41489C14.3021 2.35501 14.2209 2.32137 14.1362 2.32137C14.0515 2.32137 13.9703 2.35501 13.9104 2.41489C13.8505 2.47477 13.8169 2.55598 13.8169 2.64065C13.8169 2.72533 13.8505 2.80654 13.9104 2.86642C13.9703 2.9263 14.0515 2.95994 14.1362 2.95994ZM10.316 10.7672L10.1603 10.6004C10.5938 10.1977 11.0526 9.5556 11.1271 9.1788C11.1962 8.8283 11.7001 8.88404 11.6042 9.2653C11.4825 9.7527 10.8859 10.3413 10.316 10.7672ZM7.08258 3.09282C6.28482 3.43797 6.16799 4.25579 6.72763 4.74675C7.40231 5.33805 8.51488 4.82301 8.40786 3.91778C9.31264 3.96416 9.89635 3.0295 9.75232 2.3731C10.155 2.0284 10.1951 1.29174 9.71219 1.00233C9.19447 0.692414 8.70708 0.811027 8.39672 1.40901C7.56774 1.34881 6.77356 2.00075 7.08258 3.09282L6.69864 2.92515C6.19252 1.86653 7.07901 0.785165 8.16617 1.03444C8.24494 0.863891 8.3596 0.712362 8.50232 0.590214C8.64504 0.468065 8.81246 0.378176 8.99312 0.326691C9.17378 0.275206 9.36343 0.263341 9.5491 0.291905C9.73478 0.320468 9.91209 0.388786 10.0689 0.492192C10.7668 0.914928 10.9144 2.00566 10.1724 2.53452C10.5224 3.55257 9.82456 4.38422 8.76282 4.28924C8.6384 5.59847 7.4032 5.76748 6.60544 5.14586C6.15506 4.79492 5.9709 4.30841 5.88394 3.94142C5.79253 3.55302 5.79253 3.2052 5.40903 2.8052C5.12052 2.50331 4.6037 2.51357 4.6037 2.51357C4.6037 1.56241 3.71408 0.691968 2.60953 1.11337C2.21801 0.776248 1.73418 0.742802 1.3877 1.15974C1.18614 1.40188 1.07511 2.03821 1.69628 2.32985C1.66417 3.19672 2.32503 3.75011 3.29135 3.67342C3.32925 4.13406 3.83983 4.56214 4.29244 4.62323L4.28843 4.85467C3.80549 4.80829 3.54418 4.97685 3.22223 5.37595C2.08646 5.32244 1.29094 5.82767 1.32394 6.64238C0.525734 6.79399 0.37635 7.62966 0.828961 8.07469C1.28157 8.51972 1.94511 8.34536 2.17119 7.81382C2.97652 7.96722 3.68777 7.39019 3.72032 6.72443C4.47259 6.72443 4.80169 6.427 4.92476 5.73537L5.20881 5.75856C5.29265 6.50325 4.94795 7.21004 4.05031 7.12576C4.02712 8.01493 3.16426 8.51214 2.35937 8.2049C1.98345 8.9108 1.12238 9.19306 0.399537 8.50411C-0.298777 7.83879 -0.0437095 6.69946 0.869094 6.42343C0.890052 5.55165 1.53396 4.72357 2.78478 5.04285C2.78478 5.04285 2.94576 4.65356 3.33728 4.63037C3.07641 4.52335 2.87887 4.37931 2.82491 4.11087C1.88134 4.31198 1.08002 3.44332 1.2945 2.56886C0.443238 2.12071 0.429414 1.2797 0.851703 0.779815C1.29183 0.259421 2.02493 0.144373 2.68088 0.705345C3.79167 0.0899699 5.04739 0.843579 4.97069 2.10911C5.74749 2.05738 6.21927 2.73653 6.13276 3.44376C6.26074 3.13206 6.41057 2.98758 6.69775 2.92515L7.08258 3.09282Z" fill="#2D2D2D"/>
<path id="Vector_4" fill-rule="evenodd" clip-rule="evenodd" d="M8.99111 1.5741L9.17884 1.70832C8.81452 2.47709 8.16971 3.29358 7.61766 3.74262L7.40674 3.58387C7.79826 2.94709 8.63838 1.89605 8.99111 1.5741ZM3.55619 5.79654L3.68283 5.98427C3.22264 6.45606 2.37093 7.08526 1.91876 7.30376L1.74218 7.11201C2.17963 6.64023 3.01529 6.02263 3.55619 5.79654ZM4.65673 3.51208L4.43466 3.78677C3.83222 3.39168 2.64339 2.32949 2.37539 1.94644L2.56268 1.75514C3.13836 2.04677 4.26164 3.04832 4.65673 3.51208ZM3.53925 13.5917C3.60792 13.9364 3.5504 14.3181 3.8612 14.6909C3.9709 14.8216 4.57424 15.6158 5.01169 16.026C4.41727 16.2601 3.22844 16.7435 2.37271 16.851C2.20148 16.8728 2.00884 16.9928 1.84742 17.0851C1.74039 17.2679 1.6298 17.5948 1.58343 17.964C1.55043 18.228 1.55489 18.5214 1.55489 18.8211C1.55489 19.085 1.69446 19.9149 1.98966 20.4723C2.28531 21.0297 2.56892 21.279 2.91808 21.4417C2.98719 21.4114 3.13925 21.3887 3.37649 21.3833C4.02263 21.3686 4.52831 21.7258 4.75127 22.0322C4.83644 22.1499 5.00767 22.1731 5.23286 22.1731C5.75415 22.1731 6.32761 22.0014 6.87208 21.794C6.98846 21.6982 7.31666 21.4797 7.63906 21.2264C7.96102 20.974 9.75586 19.4516 10.5501 19.0672C10.9683 19.2937 11.6551 19.5854 12.3641 19.5854C12.4051 19.5854 12.5415 19.5872 12.6865 19.555C12.9081 19.5047 13.1921 19.4061 13.5493 19.3357C14.1892 19.2112 14.9397 19.1015 15.1587 19.1047C15.7473 19.114 17.4726 19.1586 17.8815 19.1586C18.3105 19.1586 18.9223 19.1212 19.1559 19.0984C19.5171 18.9789 20.322 18.756 21.093 18.4001C21.8622 18.0594 23.4818 16.9353 23.7467 16.6784C23.8756 16.5634 23.9897 16.4372 24.074 16.3248C24.1057 16.2811 24.1173 16.2637 24.1173 16.2289L24.1083 15.0931C24.1083 15.0931 24.4954 14.6637 24.6435 14.5148C24.6577 14.501 24.6586 14.4809 24.6564 14.4671C24.5899 14.2468 24.5235 13.5614 24.5614 12.8662L24.1694 12.6834C24.1517 13.4136 23.9351 14.1251 23.5429 14.7413C22.9601 14.8336 21.848 15.1783 21.4475 15.634L21.6678 15.6969C22.0437 15.4896 22.4464 15.3442 22.9066 15.3442C23.3133 15.3442 23.4925 15.4512 23.4925 15.5654C23.4925 15.6456 23.4158 15.8378 23.3864 15.8989C23.3512 15.9685 23.328 16.0572 23.2598 16.1313C22.704 16.7411 22.0528 17.2564 21.3316 17.6572C20.8206 17.943 20.3385 18.1352 19.5849 18.3488C19.3593 18.4126 19.0498 18.504 18.8487 18.5736C18.5646 18.5647 17.0806 18.5214 16.2137 18.5214C15.3473 18.5214 13.56 18.6476 12.9919 18.7912C12.7342 18.8563 12.67 18.9602 12.3703 18.9602C11.8107 18.9602 11.0762 18.6761 10.6254 18.4576C10.5603 18.4768 10.3971 18.549 10.2343 18.6302C9.91417 18.7894 9.20247 19.7771 8.78866 19.4784C8.57729 19.9113 7.66493 20.3216 7.35278 20.7706C7.38712 20.5356 7.75545 19.0106 7.79023 18.7056C7.79648 18.6516 7.80094 18.6079 7.7666 18.5504C7.4335 17.9939 6.50241 17.6403 5.97756 17.5377C5.82327 17.5074 5.74746 17.4864 5.64401 17.4628L4.81593 17.2126L4.0476 17.4628L4.9341 17.6327L3.80903 18.3783C4.00435 18.3033 5.21681 17.9671 5.30644 17.9404C5.40544 17.9109 5.53788 17.8819 5.68235 17.9323C5.84735 17.9899 6.31512 18.0969 6.59338 18.1936C6.75703 18.2503 7.02503 18.5508 7.09415 18.7109C7.12224 18.7778 7.13294 18.9183 7.15123 19.2291C7.16237 19.4248 7.11243 19.6969 7.06516 19.9082C6.9412 20.4612 6.68969 20.8933 6.61032 21.0476C6.50062 21.2603 6.34901 21.3289 6.19963 21.3994C5.95437 21.5144 5.65471 21.5867 5.3216 21.5911C5.09284 21.5938 4.93989 21.5818 4.84224 21.4493C4.53499 21.0346 3.77603 20.6324 3.00102 20.7822C2.52566 20.4946 2.05432 19.5662 2.05432 18.8269C2.05432 18.3836 2.27818 17.6849 2.39858 17.3339C3.1727 17.2305 4.72094 16.6405 5.47411 16.2985C5.63197 16.2904 6.06496 16.1375 6.47877 16.1375C7.49146 16.1375 8.49613 17.0231 9.10615 17.6215C9.20604 17.457 9.39377 17.2077 9.91149 17.2077C10.6285 17.2077 11.0388 17.8592 11.2444 18.5299L11.618 18.2583C11.5435 17.8415 11.346 17.4565 11.0508 17.1529C10.8033 16.9054 10.332 16.6998 9.96322 16.6998C9.74159 16.6998 9.51105 16.7493 9.36568 16.7493C8.85331 16.7493 8.64462 16.521 8.26648 16.2606C7.85801 15.9783 7.09816 15.5689 6.55592 15.5689C6.20676 15.5689 6.0498 15.7058 5.76173 15.7067C5.3381 15.7094 5.18069 15.5333 4.9778 15.2809C4.88906 15.1703 4.46008 14.7895 4.34548 14.6365C4.27948 14.5487 4.16265 14.1888 4.12029 14.0087L3.53925 13.5917Z" fill="#2D2D2D"/>
<path id="Vector_5" fill-rule="evenodd" clip-rule="evenodd" d="M4.12144 14.0086C4.24451 14.1402 4.36313 14.2856 4.51697 14.4033C4.66546 14.5156 4.8532 14.6133 5.02934 14.7132C5.27816 14.8541 5.56043 15.0155 5.84047 15.1043C6.08573 15.1783 6.40412 15.2086 6.70289 15.2086C7.12874 15.2086 7.6313 15.1208 8.04735 15.3147C8.32649 15.4454 8.34522 15.7397 8.56685 15.8258C8.91199 15.96 9.87117 15.9912 10.4027 15.9912C11.4555 15.9912 12.5944 15.8579 13.2673 15.6969L12.9391 15.3353C12.4736 15.4093 11.1073 15.5582 10.4803 15.5582C9.59693 15.5582 8.76261 15.4173 8.76261 15.0512C8.76261 14.7988 9.03462 14.4336 9.55234 14.4336C10.1084 14.4336 10.949 14.7698 11.1041 14.8158C11.2598 14.8621 11.3231 14.8496 11.4208 14.8046L11.7463 14.6365C11.3142 14.4354 9.81008 13.9181 9.28612 13.9181C9.03819 13.9181 8.90396 13.9538 8.74299 14.1611C8.54187 14.4198 8.00498 14.6557 7.14747 14.6557C6.67747 14.6557 6.00502 14.5718 5.85742 14.5112C5.59923 14.4051 5.09355 14.1116 4.77026 13.878C4.35332 13.5774 3.99034 13.2439 3.74062 12.8546C3.66851 12.743 3.63054 12.6128 3.63137 12.48C3.63226 12.3788 3.6608 12.2847 3.67106 12.2102C3.74552 12.3137 3.82624 12.3886 3.92925 12.4854C4.38186 12.9259 5.04985 13.2568 5.73657 13.3884C5.93233 13.4258 6.10624 13.4552 6.29977 13.4552C6.59274 13.4552 6.86342 13.2983 7.03555 13.1444L6.76576 12.831C6.67881 12.8573 6.49865 12.8573 6.38004 12.8573C5.38295 12.8573 4.11742 12.2049 3.82624 11.4508C3.79725 11.3768 3.76247 11.3358 3.79145 11.2671C3.82044 11.1975 3.85656 11.0508 3.87752 10.9157C3.93593 10.9826 4.05633 11.0838 4.20928 11.1824C4.57985 11.42 5.28664 11.7491 5.42487 11.8356C5.78116 11.7331 6.04916 11.6136 6.26098 11.5039C6.51375 11.3712 6.79465 11.301 7.08014 11.2992C7.80878 11.2992 8.64622 11.7148 9.43283 12.1023L9.96972 11.8905C9.27185 11.4 7.75304 10.7133 6.9089 10.7133C6.41081 10.7133 5.94259 11.0776 5.60904 11.0776C5.19968 11.0776 4.0269 10.5059 4.0269 10.0292C4.0269 9.66266 4.78586 9.45486 6.00636 9.30458C5.794 9.61847 5.59422 9.94068 5.40748 10.2705L5.71829 10.443C7.62996 7.67473 9.61833 5.87721 11.291 4.78203C11.8983 4.38382 12.037 4.15149 12.2493 3.71716C12.7674 2.65809 13.2562 1.84384 14.1061 1.84384C14.503 1.84384 14.8272 2.06635 15.0497 2.34282L15.6651 2.52654L15.0421 2.94839L15.6789 3.20123C14.8481 3.43445 13.7128 4.24246 13.2535 5.42817C12.3679 5.47544 11.9407 6.19204 11.6513 6.7927C11.456 7.1976 11.1456 7.35947 10.693 7.66582L7.073 10.1893L7.5711 10.258L10.9155 8.01854C11.575 7.57351 11.889 7.24531 12.0468 6.92915C12.3572 6.30887 12.6912 5.84778 13.3471 5.84778C13.6695 5.84778 14.0147 5.98602 14.2907 6.24644L14.8771 6.43819L14.2368 6.82971L14.7737 7.15925C13.2397 7.63995 12.2885 8.73915 11.736 10.8408L12.1431 10.9331C12.3469 10.237 12.5476 9.5989 12.907 9.03569C13.7962 9.02544 14.6961 8.99288 15.5794 8.99288C17.9366 8.99288 19.8933 9.09232 20.9492 9.40313L20.5756 8.75431C19.4456 8.56257 17.8064 8.46313 15.5794 8.46313C14.8325 8.46313 14.0762 8.49077 13.3248 8.4988C13.8096 7.98554 14.5079 7.55389 15.583 7.22034L14.82 6.80028L15.6673 6.33027L14.5128 5.90085C14.3108 5.71936 14.0597 5.55303 13.744 5.47366C14.1132 4.33744 15.373 3.67346 16.5801 3.21594L15.7346 2.87124L16.5877 2.40436L15.2744 1.98519C14.9315 1.58252 14.6011 1.3988 14.0945 1.3988C12.8767 1.3988 12.3648 2.45653 11.8818 3.39387C11.6277 3.8875 11.4667 4.0953 11.0346 4.37847C10.0981 4.99116 8.90396 5.92805 7.76418 7.12803C7.16843 6.69861 5.95195 5.44333 5.62108 4.75839C5.49087 4.91937 5.362 5.27031 5.362 5.27031C5.48641 5.40186 6.92005 6.84977 7.45248 7.46337L7.33208 7.59804C6.76442 7.71085 5.28886 7.85266 4.78676 7.78443L4.50493 8.28476C4.87995 8.24775 6.3457 8.07517 6.95394 8.0395C6.76754 8.26532 6.58703 8.49594 6.41259 8.73113C4.52723 8.94517 3.26839 9.33179 3.26839 10.0283C3.26839 10.1429 3.31432 10.2731 3.31432 10.3962C3.31432 10.6878 3.20551 10.7949 2.99816 10.9255C2.86304 11.0102 2.85457 11.0696 2.91209 11.1498C2.97006 11.2314 3.26081 11.6613 3.26081 11.746C3.26081 11.8851 3.12212 12.0256 3.0102 12.15C2.91209 12.2597 2.91611 12.2887 2.99281 12.4269L3.53951 13.5886L4.12144 14.0086ZM27.4619 7.54185C27.3415 7.66849 27.2354 7.80361 27.1462 7.94719L26.8426 7.52089C27.8566 6.16974 30.5344 5.53564 32.1053 5.42416V4.69953C31.906 4.76107 31.6911 4.83018 31.4922 4.87745C31.2104 4.94523 30.9517 5.00811 30.7323 5.00231C30.513 4.99696 30.335 4.90912 30.253 4.79184C30.0421 4.49084 30.2378 4.036 30.9281 3.61058L30.3836 3.15797C29.9636 3.70289 29.5498 4.304 29.1288 4.66297C28.7462 4.98938 28.3453 5.15214 28.0216 4.91045C27.8472 4.78024 27.7817 4.72093 27.7643 4.38114C27.7875 3.88215 28.0911 3.11962 28.3587 2.62866L27.7143 2.55285C27.5997 3.30468 27.2916 3.94592 26.9616 4.47478C26.5505 5.13475 26.0203 5.59762 25.4745 5.97666L25.1164 5.62393C25.557 5.36396 26.1086 4.94122 26.4881 4.3584C26.9282 3.68149 27.2854 2.84449 27.2858 2.08419L29.1498 2.26077C28.888 2.59343 28.4559 3.35239 28.2918 3.89731C28.2066 4.18181 28.2107 4.4079 28.3137 4.48504C28.5112 4.63309 28.8572 4.39675 29.193 4.03689C29.6666 3.52809 30.1304 2.76065 30.335 2.48686L31.6831 3.60523C31.0837 3.92273 30.5031 4.28527 30.6186 4.48906C30.7243 4.67456 31.1083 4.61882 31.5288 4.48995C31.8771 4.3824 32.2124 4.23659 32.5285 4.05517V5.87722C31.8788 5.8683 30.7783 5.98959 29.7183 6.3111C29.9703 6.66695 30.694 6.7976 31.1537 6.86092L30.9232 8.3396C29.7629 7.85221 28.8679 7.5686 27.4619 7.54185L27.927 7.1423C28.9634 7.1637 30.0019 7.4647 30.5905 7.7608L30.6748 7.20116C30.1446 7.13115 29.4766 6.82971 29.1939 6.48813C28.7324 6.66159 28.2954 6.87787 27.927 7.1423L27.4619 7.54185Z" fill="#2D2D2D"/>
<path id="Vector_6" fill-rule="evenodd" clip-rule="evenodd" d="M21.9075 12.2396L22.3392 11.3076C21.8317 10.7071 21.3673 10.0714 20.9497 9.4053L20.576 8.75648C19.7127 7.11682 20.0271 6.33334 19.5664 5.61183C19.1856 5.01563 17.3359 5.38664 17.0291 5.45085L17.5642 4.56481L16.5096 4.64864L17.4033 3.5869C17.5009 3.44866 17.5469 3.32246 17.6503 2.95413C17.8082 2.3945 18.2889 1.43933 19.6967 1.43933C21.2592 1.43933 21.7434 2.70352 22.4248 3.2529C23.3551 4.00433 24.2528 4.79523 25.1155 5.62343L25.4736 5.97615C25.9351 6.44794 26.4073 6.9331 26.8426 7.52038L27.1462 7.94668C29.0271 10.6927 31.3642 15.9416 32.3974 18.3456C32.4973 18.5779 32.5687 18.8143 32.6306 18.9935C31.8507 18.5591 31.0929 18.0862 30.36 17.5764L29.8962 17.25C29.6053 17.0403 29.3176 16.8261 29.0334 16.6074L28.5567 16.2328C28.2699 16.0034 27.9873 15.7688 27.709 15.5292L28.6494 21.0064C28.7186 21.3288 28.9941 21.2758 29.2167 20.9917C29.4392 20.7077 29.5234 20.6301 29.4392 20.255L28.5567 16.2328L29.0334 16.6074L29.8793 20.025C29.9613 20.3331 30.0916 20.4307 30.4519 20.4463C30.8126 20.462 30.8893 20.3237 30.8126 20.0865L29.8967 17.25L30.3604 17.5764L31.2273 20.1239C31.4498 20.7763 31.2273 20.853 30.8362 20.853C30.4452 20.853 30.0924 20.7607 29.8775 20.8994C29.663 21.0372 29.3937 21.414 29.0717 21.7444C28.7872 22.0352 28.3739 21.9594 28.2896 21.4136L27.2501 15.1252C26.582 14.5275 25.9483 13.8924 25.3523 13.2228C25.0866 13.1085 24.8231 12.9894 24.5617 12.8657L24.1697 12.6828C24.0772 12.6384 23.9829 12.5978 23.887 12.5611C23.5994 12.9067 23.3233 13.292 23.0014 13.568C22.8302 13.7151 22.7133 13.799 22.4605 13.799C22.3824 13.799 22.2857 13.7981 22.1956 13.7468C22.0993 13.6928 22.0088 13.584 21.908 13.4306C21.8317 13.3138 21.7189 13.1649 21.6204 12.9994C21.4148 12.6547 21.1932 12.2217 20.9934 11.8717C20.7695 11.4779 20.5769 11.1845 20.5506 11.1359C20.5105 11.061 20.4012 10.9687 20.4012 10.9687C20.2915 11.1475 20.2108 11.4922 20.2108 11.6822L19.8197 11.5497C19.8715 11.2911 19.9754 10.9571 20.0324 10.7961C20.0324 10.6579 19.8772 10.4737 19.7506 10.4737C19.5722 10.4737 19.3885 10.6695 19.2962 11.0436L18.8993 11.2162C18.9457 10.612 19.1522 9.95066 19.7506 9.95066C20.234 9.95066 20.5332 10.319 20.7633 10.6641C20.9929 11.0084 21.747 12.0385 21.9075 12.2396L22.2068 12.6186C22.2589 12.8554 22.3593 12.9923 22.4079 13.0681C22.5118 13.2291 22.6268 13.2179 22.782 13.0735C22.8529 13.0084 23.0808 12.8229 23.3015 12.5928C23.4932 12.3925 23.6796 12.1495 23.7545 12.0264C23.9739 12.125 24.3829 12.3207 24.7119 12.4652C23.2997 10.7252 21.9477 8.61334 21.3613 7.17702C21.1187 6.5835 21.5927 6.38462 21.8215 6.96967C22.4431 8.5576 24.2607 11.3651 25.5953 12.8371C27.1382 14.5397 29.9676 17.0029 31.8084 17.9924C31.5417 17.4716 31.189 16.7242 30.7823 15.8578C28.5433 14.5914 26.2803 12.2659 25.2256 10.2682L25.6894 10.3217C26.6713 12.0576 29.016 14.3733 30.4015 15.0467C29.1351 12.3591 27.4865 8.95269 26.2 7.48738C24.604 5.67025 22.8614 4.2647 22.0288 3.53338C21.2083 2.81233 20.8703 1.90755 19.6891 1.90755C18.7147 1.90755 18.2028 2.60899 18.0075 3.31711C17.9669 3.45535 17.9442 3.54141 17.8465 3.685L17.3863 4.2375L18.3812 4.11665L17.8055 4.92199C17.8055 4.92199 19.3653 4.57194 19.9116 5.31307C20.4993 6.11216 20.1198 7.00935 21.0848 8.75336C21.5093 9.5199 22.5358 10.8982 22.8792 11.2042L22.2063 12.6186L21.9075 12.2396ZM6.57671 12.4808L6.34082 12.3207C6.53899 12.1618 6.75749 12.0299 6.99053 11.9288C7.11594 11.8774 7.24968 11.8493 7.38517 11.8458C7.6496 11.8458 7.87747 11.9564 8.09999 12.075C8.45182 12.2623 8.84691 12.4826 9.14969 12.4826C9.26474 12.4826 9.37622 12.4554 9.50643 12.4554C9.80609 12.4554 10.0937 12.5896 10.2583 12.5896C10.3581 12.5896 10.4273 12.5 10.4928 12.4059C10.6578 12.1682 10.8857 11.9921 11.1769 11.8704C11.4894 11.7397 11.8654 11.6875 12.2743 11.6875C12.5962 11.6875 12.9052 11.7339 13.0662 11.7687C13.0662 11.7687 12.8205 12.0648 12.759 12.1303C12.4339 12.1303 11.8145 12.1192 11.4168 12.2802C11.1724 12.3787 11.085 12.5205 11.085 12.7234C11.085 13.0159 11.4123 13.131 11.7771 13.2416C11.992 13.3067 12.2332 13.3227 12.4366 13.3227C12.6872 13.3227 13.1675 13.2286 13.6419 13.1243C14.2149 12.9981 14.7474 12.8474 14.903 12.7899L15.1099 13.1618C14.4722 13.3776 13.8203 13.5823 13.2152 13.7053C12.8731 13.7749 12.5472 13.8177 12.2564 13.8177C11.7708 13.8177 11.2437 13.6139 10.8103 13.4075C10.4446 13.2331 10.1187 13.061 9.82704 13.061C9.49929 13.061 9.19116 13.1742 8.88749 13.3477C8.73899 13.4329 8.29084 13.7415 7.89174 13.898C7.58539 14.0197 7.33567 14.087 7.02531 14.087C6.74884 14.087 6.58385 14.0478 6.44071 13.9363L6.92141 13.642C6.98339 13.7031 7.09443 13.7143 7.1631 13.7143C7.23222 13.7143 7.31472 13.7053 7.50334 13.6273C7.61125 13.5818 7.76822 13.4855 7.86008 13.4262C8.05004 13.3036 8.11292 13.2318 8.18783 13.1729C8.3332 13.0579 8.38671 12.9053 8.20121 12.7399C8.11039 12.6542 8.01154 12.5775 7.90601 12.5107C7.73968 12.4113 7.61973 12.3141 7.31917 12.3141C6.96422 12.3127 6.71406 12.4104 6.57671 12.4808Z" fill="#2D2D2D"/>
<path id="Vector_7" fill-rule="evenodd" clip-rule="evenodd" d="M13.2735 12.6717C13.2735 12.6717 12.9876 12.5923 12.8877 12.5847C13.0677 12.3461 13.2853 12.1384 13.5321 11.9698C13.9223 11.7058 14.3308 11.5613 14.9488 11.5239C15.1169 11.5136 15.4594 11.4811 15.6507 11.4891C15.8233 11.4971 16.1149 11.5083 16.3833 11.5578C16.5733 11.5934 16.7503 11.6465 16.8975 11.6693C16.9871 11.6831 17.2988 11.6786 17.4072 11.6612C17.8446 11.5926 18.3699 11.4235 18.6464 11.2728L18.7615 11.6933C18.1706 11.9948 17.5031 12.2855 16.8921 12.2855C16.5809 12.2855 16.2505 12.2619 15.9423 12.2333C15.3992 12.1812 14.9292 12.1089 14.7673 12.1089C14.3276 12.1089 13.6949 12.3136 13.2735 12.6717ZM12.8374 15.0101L12.2817 14.7559C13.0523 14.3657 14.2295 13.9747 14.7125 13.8971C15.1958 13.8213 15.7483 13.7629 16.0663 13.6558C16.2121 14.0242 16.5002 14.4179 16.9144 14.4179C17.0656 14.4179 17.314 14.3038 17.5637 14.1932C17.8442 14.0697 18.126 13.9345 18.2718 13.869C18.4297 13.7994 18.9416 13.5747 19.3755 13.3812C19.5926 13.2825 19.8083 13.1808 20.0225 13.0761L20.3142 13.234C20.2268 13.617 20.0809 14.0884 19.9168 14.4255C19.8526 14.5579 19.7884 14.6667 19.7193 14.7452C19.5927 14.8879 19.388 15.0779 19.1209 15.267C18.8292 15.4743 18.4738 15.6866 18.0966 15.9028C17.8027 16.0727 17.5071 16.2444 17.2074 16.3818L17.0518 16.0995C17.5138 15.8382 17.9833 15.5073 18.3962 15.2014C18.5916 15.0569 18.7806 14.9107 18.9157 14.7867C19.0161 14.6953 19.079 14.6195 19.1289 14.5455C19.2515 14.3653 19.4513 14.0126 19.5124 13.8436C19.3403 13.9279 18.6883 14.2355 18.3967 14.388C18.0676 14.5615 17.5338 14.8331 17.2346 14.9749C16.9992 15.0855 16.7891 15.1466 16.6384 15.1466C16.3044 15.1466 16.1528 14.9062 16.0707 14.7608C15.8598 14.3845 15.6337 14.3497 15.0389 14.3421C14.3486 14.3336 13.4015 14.619 12.8374 15.0101ZM16.0801 13.2755C16.0801 13.2755 15.9994 12.9473 15.9611 12.8278C15.9611 12.8278 16.0569 12.7965 16.1836 12.7965C16.3905 12.7965 16.902 12.8541 17.1142 12.8541C17.9133 12.8541 18.2081 12.6026 18.4426 12.3908C18.6428 12.2106 18.8484 12.0635 19.392 12.0635C19.8714 12.0635 20.4216 12.257 20.579 12.3332L20.5447 12.7698C20.2858 12.6314 19.9976 12.5568 19.7041 12.5522C19.5061 12.5522 19.3278 12.5678 19.202 12.6333C19.0607 12.7065 18.9746 12.8162 18.8417 12.925C18.7008 13.0409 18.5077 13.1533 18.2549 13.2465C18.002 13.3397 17.689 13.4034 17.2221 13.4034C16.6059 13.4026 16.2719 13.2995 16.0801 13.2755Z" fill="#2D2D2D"/>
<path id="Vector_8" fill-rule="evenodd" clip-rule="evenodd" d="M11.0192 16.5709L11.3875 16.4184C11.7251 16.549 12.2129 16.6971 12.5522 16.6971C12.7565 16.6971 12.925 16.6239 13.0637 16.5619C13.1725 16.5133 14.3997 15.9113 15.0088 15.6902C15.2024 15.6206 15.399 15.5814 15.4944 15.5814C15.6403 15.5814 15.6487 15.6465 15.6898 15.7138C15.8048 15.8975 16.7109 17.1907 16.8028 17.2901C17.5711 17.0542 18.3582 16.7082 18.8121 16.273C19.2852 15.8168 19.6781 15.2888 20.0576 14.8804C20.2038 14.7225 20.3849 14.5798 20.4745 14.5321C20.8674 14.323 22.0892 14.3056 22.6029 14.3283L22.2983 14.7595C21.3931 14.7595 20.8865 14.8527 20.6587 15.0244C20.5624 15.0966 20.417 15.2429 20.2783 15.4235C19.9693 15.8266 19.6317 16.3782 19.4966 16.4861C19.7615 16.6699 20.0513 16.8308 20.5111 16.8308C21.2781 16.8308 21.8274 16.351 22.1284 16.0799L22.3862 16.2333C22.1958 16.4808 21.9777 16.7341 21.6999 16.9231C21.3918 17.1323 21.0034 17.2678 20.7737 17.3316C20.3287 17.2473 19.3486 17.0493 19.1189 17.0034C18.2712 17.349 16.8906 17.9073 16.4269 18.0469C16.3243 18.0725 16.2197 18.0891 16.1143 18.0964C15.7477 18.1164 15.238 18.1138 14.7738 18.1084C14.4443 18.104 14.1326 18.1057 13.9761 18.0772L13.5672 17.6504C13.9279 17.7191 14.0684 17.7401 14.4055 17.7401C15.2033 17.7401 15.7165 17.6067 15.886 17.5635C16.0282 17.5269 16.0519 17.4449 16.0095 17.316C15.9422 17.1113 15.824 16.9169 15.6443 16.7091C15.5215 16.5754 15.3867 16.4533 15.2416 16.3443C15.1319 16.2694 15.0249 16.2502 14.7239 16.3532C14.4447 16.4482 13.5788 16.9169 13.2055 17.1153C13.0209 17.2139 12.8773 17.2424 12.546 17.1639C12.1951 17.0814 11.3558 16.7746 11.0192 16.5709ZM13.4205 6.95984C13.5038 6.95984 13.5838 6.92672 13.6428 6.86776C13.7017 6.80881 13.7348 6.72884 13.7348 6.64546C13.7348 6.56209 13.7017 6.48212 13.6428 6.42317C13.5838 6.36421 13.5038 6.33109 13.4205 6.33109C13.3371 6.33109 13.2571 6.36421 13.1982 6.42317C13.1392 6.48212 13.1061 6.56209 13.1061 6.64546C13.1061 6.72884 13.1392 6.80881 13.1982 6.86776C13.2571 6.92672 13.3371 6.95984 13.4205 6.95984Z" fill="#2D2D2D"/>
</g>
</svg>
