<svg width="89" height="23" viewBox="0 0 89 23" fill="none" xmlns="http://www.w3.org/2000/svg">
<g id="Walmart_logo 2" clip-path="url(#clip0_1203_1138)">
<g id="Group">
<g id="Group_2">
<path id="Vector" d="M0.956787 5.20843C0.956787 5.20843 3.11687 14.0598 3.46161 15.4966C3.86398 17.1735 4.58899 17.7906 6.67932 17.3744L8.02813 11.8866C8.36999 10.5235 8.59928 9.55164 8.81902 8.16499H8.85768C9.01209 9.56527 9.23195 10.5275 9.51327 11.8914C9.51327 11.8914 10.0623 14.3827 10.3435 15.6912C10.6254 16.9993 11.41 17.8237 13.4575 17.3749L16.6713 5.20936H14.0765L12.9793 10.4691C12.6843 12.0001 12.4167 13.1964 12.2103 14.597H12.1737C11.9861 13.2104 11.7475 12.0615 11.4476 10.5698L10.3052 5.20936H7.60161L6.37959 10.4347C6.03338 12.0226 5.70957 13.3048 5.50365 14.6579H5.46636C5.25549 13.3836 4.97462 11.7722 4.67047 10.2351C4.67047 10.2351 3.94444 6.49763 3.68971 5.20936L0.95704 5.20971L0.956787 5.20843ZM25.693 5.20843V17.374H28.1635V14.7907V5.20785H25.693V5.20843ZM60.4874 5.20843V14.1831C60.4874 15.4205 60.7202 16.2874 61.2185 16.8171C61.6537 17.2803 62.3707 17.5802 63.2297 17.5802C63.9601 17.5802 64.6788 17.4417 65.0175 17.3155L64.9856 15.3849C64.7336 15.447 64.4437 15.4966 64.0472 15.4966C63.2056 15.4966 62.9234 14.9576 62.9234 13.8466V10.4129H65.075V8.08527H62.9234V5.20846H60.4872L60.4874 5.20843ZM20.172 8.02866C18.6367 8.02866 17.4179 8.45974 16.7536 8.84365L17.2397 10.5084C17.8477 10.1251 18.8158 9.80783 19.7325 9.80783C21.2501 9.80393 21.4982 10.666 21.4982 11.2188V11.3496C18.1913 11.3446 16.1025 12.4889 16.1025 14.8214C16.1025 16.2456 17.1658 17.5802 19.0148 17.5802C20.153 17.5802 21.1049 17.1263 21.6754 16.3989H21.7313C21.7313 16.3989 22.1091 17.9785 24.1904 17.3745C24.0811 16.717 24.0456 16.0161 24.0456 15.1719V11.9219C24.0456 9.85055 23.1611 8.02869 20.172 8.02869L20.172 8.02866ZM34.9501 8.02866C33.4042 8.02866 32.7095 8.8121 32.2883 9.47678H32.2516V8.23497H29.894V17.3745H32.3776V12.0146C32.3776 11.7633 32.4063 11.4976 32.4941 11.2664C32.6998 10.7268 33.2019 10.0955 34.0035 10.0955C35.0056 10.0955 35.4746 10.9427 35.4746 12.1655V17.3744H37.9556V11.9496C37.9556 11.7097 37.9884 11.4208 38.059 11.2087C38.263 10.5949 38.8043 10.0954 39.5494 10.0954C40.5654 10.0954 41.053 10.9279 41.053 12.3667V17.3745H43.5357V11.9915C43.5357 9.15269 42.0942 8.0287 40.467 8.0287C39.7463 8.0287 39.1775 8.2094 38.6633 8.52511C38.231 8.79036 37.8441 9.16722 37.5058 9.66346H37.4692C37.0757 8.67848 36.1524 8.0287 34.9497 8.0287L34.9501 8.02866ZM48.5885 8.02866C47.0535 8.02866 45.835 8.45974 45.17 8.84365L45.6569 10.5084C46.2643 10.1251 47.233 9.80783 48.1491 9.80783C49.6657 9.80393 49.9144 10.666 49.9144 11.2188V11.3496C46.608 11.3446 44.5189 12.4889 44.5189 14.8214C44.5189 16.2456 45.5828 17.5802 47.4328 17.5802C48.57 17.5802 49.5223 17.1263 50.0917 16.3989H50.1479C50.1479 16.3989 50.5256 17.9785 52.6072 17.3745C52.4977 16.717 52.4626 16.0161 52.4626 15.1719V11.9219C52.4626 9.85055 51.5779 8.02869 48.5885 8.02869L48.5885 8.02866ZM58.9023 8.02866C57.9513 8.02866 56.8693 8.64255 56.4151 9.95856H56.3457V8.23485H54.11V17.3744H56.6587V12.6944C56.6587 12.4419 56.674 12.2218 56.7139 12.0199C56.9024 11.0396 57.6523 10.4129 58.7285 10.4129C59.0239 10.4129 59.2354 10.4449 59.4641 10.4779V8.08519C59.2723 8.04644 59.1411 8.02857 58.9025 8.02857L58.9023 8.02866ZM21.578 12.9691V14.1093C21.578 14.278 21.5633 14.452 21.5166 14.6041C21.3254 15.2374 20.6694 15.7725 19.8493 15.7725C19.1656 15.7725 18.6225 15.3845 18.6225 14.5636C18.6225 13.3081 20.0046 12.961 21.578 12.9691H21.578ZM49.9944 12.9691V14.1093C49.9944 14.278 49.9795 14.452 49.9331 14.6041C49.7419 15.2374 49.0861 15.7725 48.266 15.7725C47.5822 15.7725 47.039 15.3845 47.039 14.5636C47.039 13.3081 48.4211 12.961 49.9945 12.9691H49.9944Z" fill="#2D2D2D"/>
<path id="Vector_2" d="M78.4325 0.808754C77.6349 0.808754 77.001 1.25414 77.001 1.79636L77.4853 7.28102C77.5388 7.61146 77.9436 7.86634 78.4329 7.86634C78.9232 7.8657 79.3266 7.61104 79.3812 7.28102L79.8679 1.79636C79.8679 1.25419 79.2322 0.808801 78.4335 0.808801L78.4325 0.808754ZM70.5391 5.20829C70.1251 5.21811 69.6547 5.5316 69.3555 6.05035C68.9553 6.74112 69.0263 7.51306 69.4944 7.78388L74.4859 10.1084C74.7977 10.2244 75.2212 10.0029 75.4665 9.58014C75.4665 9.58008 75.4664 9.57997 75.4665 9.57991C75.7128 9.15503 75.6938 8.67731 75.4344 8.46541L70.9262 5.30341C70.8092 5.2356 70.6774 5.20508 70.5394 5.20835L70.5391 5.20829ZM86.3258 5.20829C86.1878 5.20501 86.0563 5.23553 85.9395 5.30334L81.4307 8.46534C81.1729 8.67723 81.1538 9.15498 81.3989 9.57984L81.3991 9.58007C81.6453 10.0029 82.0674 10.2243 82.3792 10.1083L87.3729 7.78392C87.843 7.51311 87.9104 6.7412 87.513 6.0504C87.2124 5.53164 86.7413 5.21816 86.3273 5.20833L86.3258 5.20829ZM74.6724 12.4445C74.6078 12.4436 74.5452 12.4536 74.4866 12.4757L69.4951 14.7974C69.0269 15.0694 68.956 15.8416 69.3562 16.5331C69.7551 17.2225 70.4583 17.5503 70.9266 17.2799L75.4351 14.1204C75.6945 13.9059 75.7136 13.4283 75.4672 13.0038L75.4692 13.0048C75.2699 12.659 74.9522 12.4482 74.6724 12.4444L74.6724 12.4445ZM82.1948 12.4445C81.9153 12.4483 81.5982 12.6591 81.3984 13.0048L81.4002 13.0039C81.155 13.4284 81.174 13.906 81.4319 14.1204L85.9406 17.28C86.408 17.5504 87.1119 17.2226 87.5126 16.5332C87.9101 15.8417 87.8427 15.0694 87.3726 14.7975L82.3804 12.4757C82.3218 12.4537 82.2593 12.4437 82.1948 12.4446L82.1948 12.4445ZM78.4318 14.7176C77.9433 14.7182 77.5394 14.972 77.486 15.3015L77.0016 20.786C77.0016 21.3291 77.6356 21.7736 78.4331 21.7736C79.2322 21.7736 79.8673 21.3291 79.8673 20.786L79.3818 15.3015C79.3272 14.972 78.9239 14.7182 78.4336 14.7176H78.4317H78.4318Z" fill="#2D2D2D"/>
</g>
</g>
</g>
<defs>
<clipPath id="clip0_1203_1138">
<rect width="87.7462" height="21.8963" fill="white" transform="translate(0.517578 0.424438)"/>
</clipPath>
</defs>
</svg>
